<?xml version="1.0" standalone="no"?>
<!DOCTYPE svg PUBLIC "-//W3C//DTD SVG 20010904//EN"
 "http://www.w3.org/TR/2001/REC-SVG-20010904/DTD/svg10.dtd">
<svg version="1.0" xmlns="http://www.w3.org/2000/svg"
 width="291.000000pt" height="291.000000pt" viewBox="0 0 291.000000 291.000000"
 preserveAspectRatio="xMidYMid meet">
<metadata>
Created by potrace 1.14, written by Peter Selinger 2001-2017
</metadata>
<g transform="translate(0.000000,291.000000) scale(0.100000,-0.100000)"
fill="#000000" stroke="none">
<path d="M1348 2905 c-2 -2 -34 -5 -73 -8 -38 -3 -81 -8 -95 -11 -14 -3 -38
-8 -55 -12 -56 -11 -180 -56 -245 -89 -246 -125 -452 -359 -539 -614 -46 -134
-55 -190 -56 -364 l-1 -169 -32 -28 c-81 -70 -82 -210 -1 -235 l21 -7 -20 -21
c-23 -25 -42 -69 -42 -97 0 -28 41 -35 96 -16 26 9 48 15 48 13 25 -61 25 -66
-9 -77 -39 -13 -63 -37 -74 -77 -17 -59 24 -106 112 -129 33 -8 34 -10 41 -82
10 -93 35 -116 120 -110 51 3 54 1 111 -49 129 -115 337 -159 615 -129 30 3
64 8 75 10 135 28 221 50 305 78 98 33 100 34 106 13 9 -29 44 -64 84 -84 41
-20 102 -15 144 13 66 43 89 146 41 184 l-25 20 52 29 c193 107 307 190 424
308 121 124 185 253 185 376 0 36 -5 77 -10 92 -9 23 -7 34 15 67 34 51 42
116 20 158 -16 32 -16 32 10 42 24 9 26 14 21 45 -7 40 -36 81 -75 107 -22 14
-27 26 -29 60 -4 81 -57 168 -120 194 -18 8 -61 14 -97 14 l-64 0 -21 43 c-52
105 -198 263 -319 346 -155 105 -341 173 -511 187 -36 3 -81 7 -98 8 -18 2
-34 2 -35 1z"/>
<path d="M1168 245 c-2 -2 -64 -5 -138 -9 -74 -3 -153 -8 -175 -10 -22 -3 -65
-7 -95 -10 -198 -19 -356 -60 -347 -90 5 -18 88 -54 137 -61 25 -3 52 -8 60
-10 17 -5 75 -12 158 -20 31 -3 71 -8 89 -10 188 -24 978 -24 1188 -1 17 2 66
7 110 10 44 4 87 9 95 11 8 2 35 7 60 10 124 17 205 51 193 80 -6 18 -106 50
-188 61 -11 1 -33 5 -50 7 -41 7 -117 15 -200 22 -38 3 -99 8 -135 11 -63 6
-757 14 -762 9z"/>
</g>
</svg>
